<svg viewBox="0 0 20 20" fill="none" xmlns="http://www.w3.org/2000/svg">
<path fill-rule="evenodd" clip-rule="evenodd" d="M13.5 4C15.9853 4 18 6.01472 18 8.5C18 10.9853 15.9853 13 13.5 13H6.3C4.80883 13 3.6 11.7912 3.6 10.3C3.6 8.80883 4.80883 7.6 6.3 7.6H13.5C13.9971 7.6 14.4 8.00294 14.4 8.5C14.4 8.99706 13.9971 9.4 13.5 9.4H6.3L6.19504 9.40605C5.74744 9.45804 5.4 9.83845 5.4 10.3C5.4 10.7616 5.74744 11.142 6.19504 11.1939L6.3 11.2H13.5C14.9912 11.2 16.2 9.99117 16.2 8.5C16.2 7.00883 14.9912 5.8 13.5 5.8H6.3C3.81472 5.8 1.8 7.81472 1.8 10.3C1.8 12.7199 3.71008 14.6936 6.1048 14.7958L6.3 14.8H13.5C13.9971 14.8 14.4 15.2029 14.4 15.7C14.4 16.1971 13.9971 16.6 13.5 16.6H6.3C2.82061 16.6 0 13.7794 0 10.3C0 6.82061 2.82061 4 6.3 4H13.5Z" fill="#3884F2"/>
</svg>
