<svg viewBox="0 0 12 12" stroke="none" xmlns="http://www.w3.org/2000/svg">
<path fill-rule="evenodd" clip-rule="evenodd" d="M7.81372 1.26965V3.60299H11.1154C11.2845 3.60107 11.452 3.63595 11.6063 3.7052C11.7606 3.77445 11.898 3.87641 12.009 4.00404C12.1199 4.13166 12.2018 4.28188 12.249 4.4443C12.2962 4.60672 12.3074 4.77744 12.2821 4.94465L11.4771 10.1947C11.4349 10.4728 11.2936 10.7264 11.0792 10.9087C10.8648 11.0909 10.5917 11.1895 10.3104 11.1863L4.73039 11.1863L4.73039 2.51965L6.06372 -0.480347C6.52785 -0.480347 6.97297 -0.295972 7.30116 0.0322165C7.62935 0.360405 7.81372 0.805524 7.81372 1.26965ZM2.73039 11.1863L1.98039 11.1863C1.67097 11.1863 1.37422 11.0634 1.15543 10.8446C0.936637 10.6258 0.813721 10.3291 0.813721 10.0197V5.93632C0.813721 5.6269 0.936637 5.33015 1.15543 5.11136C1.37422 4.89257 1.67097 4.76965 1.98039 4.76965H2.73039L2.73039 11.1863Z" fill="#7B8591"/>
</svg>
