<svg width="36" height="36" viewBox="0 0 36 36" fill="none" xmlns="http://www.w3.org/2000/svg">
<g clip-path="url(#clip0_123_247)">
<path fill-rule="evenodd" clip-rule="evenodd" d="M20.466 12.3551V15.1408H24.4078C24.6097 15.1385 24.8097 15.1802 24.9939 15.2628C25.1781 15.3455 25.3421 15.4672 25.4746 15.6196C25.6071 15.772 25.7049 15.9513 25.7612 16.1452C25.8175 16.3391 25.831 16.543 25.8007 16.7426L24.8396 23.0105C24.7892 23.3426 24.6205 23.6453 24.3646 23.8629C24.1086 24.0804 23.7826 24.1982 23.4467 24.1944L16.591 24.1944L16.591 14.2836L18.3767 10.2658C18.9309 10.2658 19.4623 10.4859 19.8541 10.8777C20.2459 11.2696 20.466 11.801 20.466 12.3551ZM14.591 24.1944L14.591 16.5337H13.5017C13.1323 16.5337 12.7781 16.6804 12.5168 16.9416C12.2556 17.2028 12.1089 17.5571 12.1089 17.9265V22.8015C12.1089 23.1709 12.2556 23.5252 12.5168 23.7864C12.7781 24.0476 13.1323 24.1944 13.5017 24.1944H14.591Z" fill="#CFD3D7"/>
</g>
<circle cx="18" cy="18" r="18" fill="#106BEF"/>
<path fill-rule="evenodd" clip-rule="evenodd" d="M16.2108 20.8488L13.8384 18.5195C13.4179 18.1066 12.736 18.1066 12.3154 18.5195C11.8949 18.9324 11.8949 19.6019 12.3154 20.0148L15.5462 23.1868C16.0027 23.6351 16.7556 23.5909 17.1545 23.0924L24.6929 14.6337C25.0604 14.1746 24.9791 13.5099 24.5115 13.1491C24.0438 12.7883 23.3668 12.8681 22.9993 13.3272L16.2108 20.8488Z" fill="white"/>
<defs>
<clipPath id="clip0_123_247">
<rect width="14.625" height="15.3214" fill="white" transform="translate(11.5352 9.44647)"/>
</clipPath>
</defs>
</svg>
