<svg width="36" height="36" viewBox="0 0 36 36" fill="none" xmlns="http://www.w3.org/2000/svg">
<g clip-path="url(#clip0_123_188)">
<path fill-rule="evenodd" clip-rule="evenodd" d="M19.8146 12.3278V14.8992H23.4532C23.6396 14.8971 23.8242 14.9356 23.9942 15.0119C24.1642 15.0882 24.3157 15.2006 24.438 15.3412C24.5603 15.4818 24.6505 15.6474 24.7025 15.8264C24.7544 16.0054 24.7669 16.1935 24.7389 16.3778L23.8518 22.1635C23.8053 22.4701 23.6495 22.7495 23.4133 22.9504C23.177 23.1512 22.8761 23.2599 22.5661 23.2564H16.3146L16.3146 13.9349L17.8861 10.3992C18.3975 10.3992 18.8881 10.6024 19.2498 10.9641C19.6114 11.3258 19.8146 11.8163 19.8146 12.3278ZM14.3146 23.2564L14.3146 16.1849H13.3861C13.0451 16.1849 12.718 16.3204 12.4769 16.5615C12.2358 16.8026 12.1003 17.1297 12.1003 17.4707V21.9707C12.1003 22.3117 12.2358 22.6387 12.4769 22.8798C12.718 23.1209 13.0451 23.2564 13.3861 23.2564H14.3146Z" fill="#CFD3D7"/>
</g>
<circle cx="18" cy="18" r="17.5" stroke="#CFD3D7"/>
<defs>
<clipPath id="clip0_123_188">
<rect width="13.5" height="14.1429" fill="white" transform="translate(11.5708 9.64288)"/>
</clipPath>
</defs>
</svg>
