<svg viewBox="0 0 18 18" fill="none" xmlns="http://www.w3.org/2000/svg">
<g opacity="0.8">
<path fill-rule="evenodd" clip-rule="evenodd" d="M12.2438 11.1742L16.2788 15.2092C16.4206 15.3511 16.5003 15.5436 16.5002 15.7442C16.5001 15.9448 16.4204 16.1372 16.2784 16.2791C16.1365 16.4209 15.9441 16.5005 15.7434 16.5004C15.5428 16.5004 15.3504 16.4206 15.2086 16.2787L11.1736 12.2437C9.96735 13.1779 8.45053 13.6176 6.93167 13.4732C5.4128 13.3288 4.00599 12.6112 2.99743 11.4664C1.98887 10.3216 1.45431 8.83554 1.50251 7.31059C1.55071 5.78564 2.17803 4.33633 3.25687 3.25748C4.33572 2.17864 5.78503 1.55132 7.30998 1.50312C8.83493 1.45492 10.321 1.98948 11.4658 2.99804C12.6106 4.0066 13.3282 5.41341 13.4726 6.93228C13.617 8.45114 13.1773 9.96796 12.2431 11.1742H12.2438ZM7.50007 11.9999C8.69354 11.9999 9.83814 11.5258 10.6821 10.6819C11.526 9.838 12.0001 8.6934 12.0001 7.49993C12.0001 6.30646 11.526 5.16186 10.6821 4.31795C9.83814 3.47404 8.69354 2.99993 7.50007 2.99993C6.3066 2.99993 5.162 3.47404 4.31809 4.31795C3.47418 5.16186 3.00007 6.30646 3.00007 7.49993C3.00007 8.6934 3.47418 9.838 4.31809 10.6819C5.162 11.5258 6.3066 11.9999 7.50007 11.9999Z" fill="white"/>
</g>
</svg>
